# xmcd
#
# Track frame offsets:
# 150
# 12555
# 24215
# 36665
# 49935
# 62257
# 70805
# 83240
# 100760
# 111982
#
# Disc length: 1610 seconds
#
#
# Revision: 1
# Processed by: cddbd v1.5.1PL2 Copyright (c) Steve Scherf et al.
# Submitted via: FreeRIP 2.945 
#
DISCID=7f06480a
DTITLE=Conway Twitty - Who Will Pray For Me
DYEAR=1973
DGENRE=Gospel
TTITLE0=Who Will Pray For Me
TTITLE1=Jesus Is A Soul Man
TTITLE2=In Loving Memories
TTITLE3=Suppertime
TTITLE4=Clinging To A Saving Hand
TTITLE5=The Big Man Above
TTITLE6=If We Want Love To Last
TTITLE7=The Third Man
TTITLE8=Lead Us Back To Love
TTITLE9=Conway Twitty - Me and My Neighbor
EXTD=
EXTT0=
EXTT1=
EXTT2=
EXTT3=
EXTT4=
EXTT5=
EXTT6=
EXTT7=
EXTT8=
EXTT9=
PLAYORDER=
